<svg id="visual" viewBox="0 0 900 600" width="900" height="600" xmlns="http://www.w3.org/2000/svg" xmlns:xlink="http://www.w3.org/1999/xlink" version="1.1"><rect x="0" y="0" width="900" height="600" fill="#ffffff"></rect><defs><linearGradient id="grad1_0" x1="33.3%" y1="0%" x2="100%" y2="100%"><stop offset="20%" stop-color="#145326" stop-opacity="1"></stop><stop offset="80%" stop-color="#145326" stop-opacity="1"></stop></linearGradient></defs><defs><linearGradient id="grad1_1" x1="33.3%" y1="0%" x2="100%" y2="100%"><stop offset="20%" stop-color="#145326" stop-opacity="1"></stop><stop offset="80%" stop-color="#517c57" stop-opacity="1"></stop></linearGradient></defs><defs><linearGradient id="grad1_2" x1="33.3%" y1="0%" x2="100%" y2="100%"><stop offset="20%" stop-color="#89a68c" stop-opacity="1"></stop><stop offset="80%" stop-color="#517c57" stop-opacity="1"></stop></linearGradient></defs><defs><linearGradient id="grad1_3" x1="33.3%" y1="0%" x2="100%" y2="100%"><stop offset="20%" stop-color="#89a68c" stop-opacity="1"></stop><stop offset="80%" stop-color="#c3d2c4" stop-opacity="1"></stop></linearGradient></defs><defs><linearGradient id="grad1_4" x1="33.3%" y1="0%" x2="100%" y2="100%"><stop offset="20%" stop-color="#ffffff" stop-opacity="1"></stop><stop offset="80%" stop-color="#c3d2c4" stop-opacity="1"></stop></linearGradient></defs><defs><linearGradient id="grad2_0" x1="0%" y1="0%" x2="66.7%" y2="100%"><stop offset="20%" stop-color="#145326" stop-opacity="1"></stop><stop offset="80%" stop-color="#145326" stop-opacity="1"></stop></linearGradient></defs><defs><linearGradient id="grad2_1" x1="0%" y1="0%" x2="66.7%" y2="100%"><stop offset="20%" stop-color="#517c57" stop-opacity="1"></stop><stop offset="80%" stop-color="#145326" stop-opacity="1"></stop></linearGradient></defs><defs><linearGradient id="grad2_2" x1="0%" y1="0%" x2="66.7%" y2="100%"><stop offset="20%" stop-color="#517c57" stop-opacity="1"></stop><stop offset="80%" stop-color="#89a68c" stop-opacity="1"></stop></linearGradient></defs><defs><linearGradient id="grad2_3" x1="0%" y1="0%" x2="66.7%" y2="100%"><stop offset="20%" stop-color="#c3d2c4" stop-opacity="1"></stop><stop offset="80%" stop-color="#89a68c" stop-opacity="1"></stop></linearGradient></defs><defs><linearGradient id="grad2_4" x1="0%" y1="0%" x2="66.7%" y2="100%"><stop offset="20%" stop-color="#c3d2c4" stop-opacity="1"></stop><stop offset="80%" stop-color="#ffffff" stop-opacity="1"></stop></linearGradient></defs><g transform="translate(900, 0)"><path d="M0 324.5C-40.8 320.8 -81.6 317 -124.2 299.8C-166.8 282.5 -211.1 251.8 -207.2 207.2C-203.3 162.6 -151.1 104.2 -162.6 67.4C-174.1 30.5 -249.3 15.3 -324.5 0L0 0Z" fill="#e1e8e1"></path><path d="M0 259.6C-32.6 256.6 -65.3 253.6 -99.3 239.8C-133.4 226 -168.9 201.4 -165.7 165.7C-162.6 130.1 -120.9 83.3 -130.1 53.9C-139.3 24.4 -199.4 12.2 -259.6 0L0 0Z" fill="#a5bca7"></path><path d="M0 194.7C-24.5 192.5 -49 190.2 -74.5 179.9C-100.1 169.5 -126.7 151.1 -124.3 124.3C-122 97.6 -90.7 62.5 -97.6 40.4C-104.5 18.3 -149.6 9.2 -194.7 0L0 0Z" fill="#6c9171"></path><path d="M0 129.8C-16.3 128.3 -32.6 126.8 -49.7 119.9C-66.7 113 -84.4 100.7 -82.9 82.9C-81.3 65 -60.4 41.7 -65 26.9C-69.6 12.2 -99.7 6.1 -129.8 0L0 0Z" fill="#34673e"></path><path d="M0 64.9C-8.2 64.2 -16.3 63.4 -24.8 60C-33.4 56.5 -42.2 50.4 -41.4 41.4C-40.7 32.5 -30.2 20.8 -32.5 13.5C-34.8 6.1 -49.9 3.1 -64.9 0L0 0Z" fill="#145326"></path></g><g transform="translate(0, 600)"><path d="M0 -324.5C44.8 -324.9 89.6 -325.3 124.2 -299.8C158.8 -274.3 183.2 -222.8 177.5 -177.5C171.7 -132.1 135.7 -92.9 155.2 -64.3C174.7 -35.7 249.6 -17.9 324.5 0L0 0Z" fill="#e1e8e1"></path><path d="M0 -259.6C35.8 -259.9 71.7 -260.3 99.3 -239.8C127 -219.4 146.6 -178.3 142 -142C137.4 -105.7 108.6 -74.3 124.2 -51.4C139.7 -28.6 199.7 -14.3 259.6 0L0 0Z" fill="#a5bca7"></path><path d="M0 -194.7C26.9 -194.9 53.7 -195.2 74.5 -179.9C95.3 -164.6 109.9 -133.7 106.5 -106.5C103 -79.3 81.4 -55.7 93.1 -38.6C104.8 -21.4 149.8 -10.7 194.7 0L0 0Z" fill="#6c9171"></path><path d="M0 -129.8C17.9 -130 35.8 -130.1 49.7 -119.9C63.5 -109.7 73.3 -89.1 71 -71C68.7 -52.9 54.3 -37.1 62.1 -25.7C69.9 -14.3 99.8 -7.1 129.8 0L0 0Z" fill="#34673e"></path><path d="M0 -64.9C9 -65 17.9 -65.1 24.8 -60C31.8 -54.9 36.6 -44.6 35.5 -35.5C34.3 -26.4 27.1 -18.6 31 -12.9C34.9 -7.1 49.9 -3.6 64.9 0L0 0Z" fill="#145326"></path></g></svg>